<?xml version="1.0" encoding="utf-8"?>
<!-- Generator: Adobe Illustrator 21.1.0, SVG Export Plug-In . SVG Version: 6.00 Build 0)  -->
<svg version="1.1" id="Layer_1" xmlns="http://www.w3.org/2000/svg" xmlns:xlink="http://www.w3.org/1999/xlink" x="0px" y="0px"
	 viewBox="0 0 1246.7 844.6" style="enable-background:new 0 0 1246.7 844.6;" xml:space="preserve">
<style type="text/css">
	.st0{fill:#95D600;}
	.st1{fill:#64676B;}
	.st2{fill:#65676A;}
	.st3{fill:#FFFFFF;}
</style>
<g>
	<path class="st1" d="M1022.4,375.9v-76.2c0-8.9,1.1-16.4,2.9-22.3c6.6-20.5,23-33.9,44.9-33.9c20.1,0,26.5,11.7,26.5,33.9v98.5
		h41.4V269c0-42-19.5-63.2-58-63.2c-30.2,0-50.2,16.6-59.4,34.6h-0.6l0.6-11.5v-19.2h-40v166.2H1022.4z"/>
	<path class="st2" d="M1166.2,145.2c9.7,0,17.6,7.9,17.6,17.5c0,15.9-17.8,47.7-17.6,48c0,0.1-17.6-33-17.6-48
		C1148.6,153.1,1156.5,145.2,1166.2,145.2"/>
	<path class="st0" d="M190.2,663.9c7.8,6.8,19.9,13,37.3,19.8c17.2,6.3,36.2,9.4,55.6,9.4c31,0,56.1-7.3,74.5-22.4
		c18.3-15.1,27.7-34.3,27.7-57.3c0-85.6-130.1-81.3-130.1-118.4c0-16.2,15.2-23.9,34.1-23.9c12.2,0,24.2,2,35.1,6.2
		c11.6,4.2,19,7.9,22.6,10.4l7.8,6.2l24.7-49l-8.8-7.3c-12-10.4-45.2-23-80.8-23c-30,0-54,7.4-73.5,21.4
		c-19.3,14.1-28.8,32.8-28.8,56.7c0,85,130.1,80.9,130.1,119.9c0,15.1-15.8,24-35.1,24c-13.2,0-25.7-2.6-38.8-7.9
		c-12.6-5.7-21-9.8-25.2-13l-9-8.3L179.1,654L190.2,663.9z"/>
	<path class="st0" d="M404.2,553.9c0,39,13.2,72,39.4,99c26.8,26.6,61.3,40.1,104.4,40.1c40.5,0,70.9-13.5,88.7-24.5
		c14.6-8.8,16.7-11.4,18.9-13.5l-25.7-47.5l-9.4,7.3c-13.1,10-42.5,21.9-67.7,21.9c-42,0-76.1-26-80.2-70.3h184.6l1.7-25.6
		c0-36.6-10.5-66.8-31.5-90.3c-20.5-23.9-49.9-36-87.2-36c-39.9,0-72.3,13-98,39.1C416.8,479.4,404.2,512.7,404.2,553.9
		 M474.6,521.1c6.3-34.9,29.8-55.3,63.9-55.3c30,0,52.5,20.4,53,55.3H474.6z"/>
	<path class="st0" d="M764.6,686.9v-122c0-14.1,1.7-26,4.7-35.4c10.5-32.8,36.7-54.3,71.8-54.3c32.1,0,42.6,18.8,42.6,54.3v157.4
		h66.1v-171c0-67.3-30.9-101.2-92.8-101.2c-48.2,0-80.3,26.6-94.9,55.3H761l1.1-18.3V421h-64v265.8H764.6z"/>
	<path class="st0" d="M980.7,553.9c0,41.1,10.5,75,32,100.6c21.5,25.6,50.4,38.6,86.6,38.6c36.7,0,60.3-16.2,71.8-29.7
		c10-10.4,10.5-13,12.1-15.7h0.9l-0.9,17.2v21.9h62.9V316.7h-66.6v116.7c0,5.7,0,10.4,0.6,15.1h-1.1l-2.6-3.6
		c-5.8-8.8-27.8-30.2-74.5-30.2c-35.6,0-65,13-87.6,38.6C991.6,478.8,980.7,512.2,980.7,553.9 M1047.8,553.9
		c0-50.6,28.9-82.4,67.1-82.4c21,0,37.3,8.3,48.8,24.5c12,16.2,17.8,34.9,17.8,57.3c0,55.8-29.4,83.9-67.1,83.9
		C1074.6,637.3,1047.8,604,1047.8,553.9"/>
	<path class="st0" d="M66.6,479.1V367.5c0-8.9-0.6-16.8-1.1-23h1.1l2.6,3.6c7.3,10,32.6,32.8,74,32.8c35.7,0,65.1-12.4,87.6-38
		c23.1-25.6,34.6-59.4,34.6-101.2c0-41.3-11-75.1-32.4-100.7c-21.6-25.6-49.9-38.6-86.1-38.6c-38.2,0-61.3,15.1-74,28.7
		c-9.9,9.8-10.5,13-12,15.1h-1.1l1.1-18.3v-19.2H0v370.2H66.6z M64.5,243.4c0-55.8,29.4-83.9,67.1-83.9c39.9,0,66.6,33.4,66.6,83.5
		c0,50.5-28.9,82.3-67.1,82.3c-21,0-37.3-7.7-49.3-23.9C70.3,285.1,64.5,265.8,64.5,243.4"/>
	<rect x="304.8" y="108.9" class="st0" width="66.6" height="265.9"/>
	<path class="st0" d="M338.1,0c21.1,0,38.2,17,38.2,37.9c0,21-17.1,37.9-38.2,37.9c-21.1,0-38.2-17-38.2-37.9
		C299.9,17,317,0,338.1,0"/>
	<path class="st0" d="M409.8,241.9c0,39.6,13.1,72.9,39.9,99.5C476.3,368,511.4,381,555.1,381c26.7,0,54.5-7.3,69.7-15.1
		c7.9-3.6,15.8-8.3,22.5-13c14.2-9.8,15.8-13,17.9-15.1l-25.7-46.9l-10,8.8c-6.3,5.7-16.3,11-29.4,16.8c-13.1,5.7-26.2,8.3-39.3,8.3
		c-24.7,0-45.2-7.9-60.4-24c-15.2-16.1-23.1-36-23.1-59.4c0-23.4,7.4-42.7,22.6-58.4c15.2-16.2,34.6-23.9,58.7-23.9
		c12.6,0,24.7,2.6,36.7,8.3c12,5.2,20.5,9.4,24.2,12.4l8.8,7.9l29.4-45.4l-10.5-9.8c-6.7-6.8-18.3-13-35.6-19.8
		c-17.3-6.8-36.2-10-56.6-10c-43.6,0-78.8,13.6-105.4,40.7C422.8,169.9,409.8,202.7,409.8,241.9"/>
	<polygon class="st0" points="766,374.8 766,258.5 800.5,258.5 871.4,374.8 947.9,374.8 853,228.8 853,227.8 937.5,108.9 
		863.5,108.9 799,202.7 766,202.7 766,4.6 699.3,4.6 699.3,374.8 	"/>
	<g>
		<path class="st1" d="M425.2,756.2c-8.8,0-16.3,3.1-22.6,9.1c-6.2,6-9.3,13.7-9.3,23.2c0,9.4,3.1,17.1,9.2,23.2
			c6.2,5.9,13.7,8.8,22.8,8.8c9.3,0,15.7-3.4,19.5-6.1c3-2.3,3.3-2.9,3.8-3.4l-2.7-4.3l-2.2,2.2c-2.8,2.9-10.4,6.6-18.4,6.6
			c-7.4,0-13.7-2.4-18.8-7.5c-5.1-5-7.7-11.5-7.7-19.5c0-8.1,2.6-14.6,7.7-19.6c5.1-5,11.4-7.6,18.8-7.6c3.6,0,6.9,0.7,10.1,2.2
			c3.3,1.5,5.4,2.7,6.4,3.6c1.1,0.9,1.9,1.5,2.4,2.1l3.2-4.2l-2.2-2.1C442.1,759.9,434,756.2,425.2,756.2"/>
		<path class="st1" d="M460.8,787.9c0,9.1,3.1,16.8,9.3,23c6.3,6.2,13.8,9.4,22.8,9.4c8.9,0,16.4-3.2,22.6-9.4
			c6.3-6.2,9.4-14,9.4-23c0-8.9-3.1-16.4-9.4-22.5c-6.2-6.1-13.7-9.2-22.6-9.2c-8.9,0-16.4,3.1-22.8,9.2
			C463.9,771.5,460.8,779,460.8,787.9 M466.3,787.9c0-7.5,2.6-13.8,7.7-19c5.2-5.1,11.5-7.7,18.9-7.7c7.4,0,13.7,2.6,18.8,7.7
			c5.2,5.1,7.8,11.5,7.8,19c0,7.7-2.6,14.3-7.8,19.6c-5.1,5.3-11.4,7.8-18.8,7.8c-7.4,0-13.7-2.6-18.9-7.8
			C468.9,802.2,466.3,795.6,466.3,787.9"/>
		<path class="st1" d="M541.2,796.5c0,16.2,5.7,23.9,20.4,23.9c6.6,0,12.1-1.8,16.7-5.6c4.6-3.8,7.5-7.7,8.9-11.6h0.2l-0.5,5v10.8
			h5.2v-61.2H587v29.9c0,7.5-2.4,14.1-7.2,19.6c-4.7,5.5-10.8,8.2-18.2,8.2c-8.2,0-12.2-3.6-13.8-8.8c-1.1-3.9-1.4-7-1.4-11.9v-37
			h-5.2V796.5z"/>
		<path class="st1" d="M619.1,818.9v-26.5c0-4.7,0.6-8.9,1.9-12.9c3-9.9,9.4-17.1,18.4-17.1c0.9,0,1.9,0.1,2.8,0.2v-5.1l-3.6-0.4
			c-9.3,0-16.4,7.2-19.8,17.1h-0.2l0.5-5v-11.6h-5.2v61.2H619.1z"/>
		<path class="st1" d="M661.4,733.2h-6.2v8.9h6.2V733.2z M660.9,757.7h-5.2v61.2h5.2V757.7z"/>
		<path class="st1" d="M678.3,788.4c0,9.4,3.1,17.1,9.1,23.2c6.2,5.9,13.7,8.8,22.8,8.8c4,0,7.8-0.7,11.6-2.3
			c3.8-1.6,6.4-2.8,7.5-3.7c1.2-1,2.2-1.8,2.8-2.4l-2.8-4.3l-2.2,2c-2.8,2.6-9.9,5.8-16.9,5.8c-7.5,0-13.8-2.5-18.9-7.5
			c-5.1-5-7.5-11.9-7.5-20.5h49.6l0.2-3.3c0-8-2.2-14.6-6.7-19.8c-4.3-5.4-10.5-8.1-18.5-8.1c-8.3,0-15.5,2.9-21.3,8.7
			C681.3,770.6,678.3,778.5,678.3,788.4 M684.1,782.6c2.1-13.7,12.1-21.7,24.1-21.7c11,0,19.3,7.5,19.9,21.7H684.1z"/>
		<path class="st1" d="M756.2,818.9v-26.5c0-4.7,0.6-8.9,1.9-12.9c3-9.9,9.4-17.1,18.4-17.1c0.9,0,1.9,0.1,2.8,0.2v-5.1l-3.6-0.4
			c-9.3,0-16.4,7.2-19.8,17.1h-0.2l0.5-5v-11.6H751v61.2H756.2z"/>
		<path class="st1" d="M824.2,795.5c0,7.2,2.6,13.1,7.9,17.9c5.3,4.7,12.2,7,20.5,7c17.2,0,27.6-10.5,27.6-31.6V775h12v-4.9h-12
			v-12.5h-5.3v12.5h-20.2c-8.9,0-15.1-2.6-17.7-6.4c-2.6-3.9-3.5-7.1-3.5-10.9c0-9.8,8.3-16.3,19.3-16.3c2.1,0,4.7,0.4,7.8,1
			l1.7-4.7l-1.5-0.2c-2-0.5-5.6-1-7.7-1c-15.7,0-25.2,8.7-25.2,21.3c0,9.4,4.5,14.6,8,17c3,1.8,3.8,2.1,4.4,2.2v0.2
			C830.3,775.3,824.2,784.8,824.2,795.5 M829.8,795.3c0-12.4,8.5-20.2,25.2-20.2h19.9v13.7c0,17.6-7.4,26.5-22.3,26.5
			C838.7,815.2,829.8,806.7,829.8,795.3"/>
		<path class="st1" d="M971.3,756.2c-8.8,0-16.3,3.1-22.6,9.1c-6.2,6-9.3,13.7-9.3,23.2c0,9.4,3.1,17.1,9.1,23.2
			c6.2,5.9,13.7,8.8,22.8,8.8c9.3,0,15.7-3.4,19.5-6.1c3-2.3,3.3-2.9,3.8-3.4l-2.7-4.3l-2.2,2.2c-2.8,2.9-10.4,6.6-18.4,6.6
			c-7.4,0-13.7-2.4-18.8-7.5c-5.1-5-7.7-11.5-7.7-19.5c0-8.1,2.6-14.6,7.7-19.6c5.1-5,11.4-7.6,18.8-7.6c3.6,0,6.9,0.7,10.1,2.2
			c3.3,1.5,5.4,2.7,6.4,3.6c1.1,0.9,1.9,1.5,2.4,2.1l3.2-4.2l-2.2-2.1C988.1,759.9,980,756.2,971.3,756.2"/>
		<path class="st1" d="M1006.7,802.6c0,5.8,2.1,10.2,6.3,13.2c4.2,3.1,9.1,4.5,14.7,4.5c16,0,21.9-15.1,21.6-15.1h0.2l-0.5,5.5v8.1
			h5.2v-39.6c0-15.2-7.5-23.2-21.9-23.2c-4,0-7.8,0.6-11.4,2c-3.6,1.2-5.9,2.2-7,2.9c-1.1,0.7-1.9,1.3-2.5,1.8l3,4.2l2-1.5
			c2.8-2,9.3-4.4,15.7-4.4c11.3,0,16.9,6.1,16.9,18.3v2.1h-4.1c-4.5,0-6.6,0-12.4,0.6c-5.8,0.5-9.3,1.3-14.3,3.4
			C1011.6,788.5,1006.7,793.8,1006.7,802.6 M1012.2,802.2c-0.6-7.8,6.4-12.1,12.4-13.8c2-0.7,4.5-1.2,7.4-1.5
			c3.1-0.4,5.3-0.5,6.9-0.5c1.6-0.1,3.7-0.1,6.3-0.1h4v3.3c0,6.6-2,12.6-5.8,18c-3.8,5.3-9,8-15.3,8
			C1018.1,815.6,1012.2,809.2,1012.2,802.2"/>
		<path class="st1" d="M1080.4,818.9v-26.5c0-4.7,0.6-8.9,1.9-12.9c3-9.9,9.4-17.1,18.4-17.1c0.9,0,1.9,0.1,2.8,0.2v-5.1l-3.6-0.4
			c-9.3,0-16.4,7.2-19.8,17.1h-0.2l0.5-5v-11.6h-5.2v61.2H1080.4z"/>
		<path class="st1" d="M1117.8,839.9c6.3,3.2,12.7,4.8,19.4,4.8c8,0,14.8-2.2,20.2-6.5c5.4-4.3,8.2-10.8,8.2-19.6v-60.9h-5.2v8.2
			c0,1,0.1,1.7,0.4,2.3h-0.2l-0.5-1.2c-1.7-3.1-6.9-10.8-21-10.8c-8,0-14.6,2.8-19.4,8.5c-4.8,5.5-7.2,13.1-7.2,22.7
			c0,9.4,2.6,17.2,7.7,22.9c5.1,5.8,11.7,8.7,19.8,8.7c9.8,0,16.7-4.2,20.8-12.5h0.2l-0.5,5v7.1c0,14.2-9.5,21.1-23.5,21.1
			c-5.9,0-11.5-1.5-16.6-4.3L1117.8,839.9z M1140.2,813.9c-13.4,0-22.4-10.3-22.4-26.6c0-16.5,7.8-26.1,21.1-26.1
			c14.3,0,21.5,8.7,21.5,26.1C1160.4,805.9,1152.1,813.9,1140.2,813.9"/>
		<path class="st1" d="M1182.7,787.9c0,9.1,3.1,16.8,9.3,23c6.3,6.2,13.8,9.4,22.7,9.4c8.9,0,16.4-3.2,22.6-9.4
			c6.3-6.2,9.4-14,9.4-23c0-8.9-3.1-16.4-9.4-22.5c-6.2-6.1-13.7-9.2-22.6-9.2c-8.9,0-16.4,3.1-22.7,9.2
			C1185.8,771.5,1182.7,779,1182.7,787.9 M1188.1,787.9c0-7.5,2.6-13.8,7.7-19c5.2-5.1,11.5-7.7,18.9-7.7c7.4,0,13.7,2.6,18.8,7.7
			c5.2,5.1,7.8,11.5,7.8,19c0,7.7-2.6,14.3-7.8,19.6c-5.1,5.3-11.4,7.8-18.8,7.8c-7.4,0-13.7-2.6-18.9-7.8
			C1190.7,802.2,1188.1,795.6,1188.1,787.9"/>
	</g>
</g>
</svg>
